<svg xmlns="http://www.w3.org/2000/svg" viewBox="0 0 126.92 126.92"><defs><style>.cls-1{fill:#fff;fill-rule:evenodd;}</style></defs><g id="Capa_2" data-name="Capa 2"><g id="Layer_1" data-name="Layer 1"><path class="cls-1" d="M77.8,48.8H50.41V39.41h6.91V23.72l6.77-6.47,6.8,6.48V39.41H77.8V48.8ZM16.45,99.42a19.43,19.43,0,0,1-6.33-1.57,62.05,62.05,0,0,0,5.2,7,25.39,25.39,0,0,0,5.85,0C34,103.61,48.72,94.48,63.08,94.59c14.59.11,28.09,10.53,41.75,11.19a25.57,25.57,0,0,0,6.33-.46,64.46,64.46,0,0,0,5.61-7.42A23.76,23.76,0,0,1,110,100c-9.82,1.52-19.47-3.25-29.41-7l.06.62L76.22,52.84h5.62V35.37h-6.9V22L64.08,11.66,53.27,22V35.37H46.36V52.84H52L47.76,91.69c-11,3.3-21.82,8.49-31.31,7.73ZM72.16,52.84l4,36.78H52.05l4-36.78Z"/><path class="cls-1" d="M63.46,111.06A58.53,58.53,0,0,1,89,116.88a59.33,59.33,0,0,1-51,0,58.53,58.53,0,0,1,25.5-5.82Zm30.08,8.29q2.38-1.27,4.64-2.76c-1.34-.87-2.71-1.7-4.11-2.47a63.53,63.53,0,0,0-61.22,0q-2.1,1.17-4.11,2.47c1.51,1,3.05,1.91,4.64,2.76a63.55,63.55,0,0,0,60.16,0Z"/><path class="cls-1" d="M4.28,63.46A59.18,59.18,0,1,1,114.43,93.57a31.72,31.72,0,0,0,5-.26A63.47,63.47,0,1,0,0,63.46,63.07,63.07,0,0,0,7.05,92.55a32.25,32.25,0,0,0,4.8-.11A58.89,58.89,0,0,1,4.28,63.46Z"/></g></g></svg>